<svg width="12" height="7" viewBox="0 0 12 7" fill="none" xmlns="http://www.w3.org/2000/svg">
<path d="M0.862 0.528667C0.987019 0.403687 1.15656 0.333476 1.33333 0.333476C1.51011 0.333476 1.67965 0.403687 1.80467 0.528667L6 4.724L10.1953 0.528667C10.2568 0.464994 10.3304 0.414205 10.4117 0.379266C10.4931 0.344327 10.5805 0.325936 10.6691 0.325167C10.7576 0.324398 10.8454 0.341266 10.9273 0.374786C11.0092 0.408307 11.0837 0.457809 11.1463 0.520404C11.2089 0.582999 11.2584 0.657434 11.2919 0.739365C11.3254 0.821296 11.3423 0.909082 11.3415 0.997601C11.3407 1.08612 11.3223 1.1736 11.2874 1.25494C11.2525 1.33627 11.2017 1.40984 11.138 1.47133L6.47133 6.138C6.34631 6.26298 6.17678 6.33319 6 6.33319C5.82322 6.33319 5.65369 6.26298 5.52867 6.138L0.862 1.47133C0.737019 1.34632 0.666809 1.17678 0.666809 1C0.666809 0.823225 0.737019 0.653686 0.862 0.528667Z" fill="#6D6E85"/>
</svg>
